<svg xmlns="http://www.w3.org/2000/svg" viewBox="0 0 914.59 251.17"><g id="Layer_2" data-name="Layer 2"><g id="Layer_1-2" data-name="Layer 1"><g id="Layer_2-2" data-name="Layer 2"><g id="CF_Logo_Full_OL" data-name="CF Logo Full OL"><path d="M6.24,120a5.91,5.91,0,1,0,5.57,6.24A5.91,5.91,0,0,0,6.24,120Z"/><path d="M74.48,124.64A18.35,18.35,0,0,0,91.72,144h1a18.3,18.3,0,1,0-18.29-19.35Z"/><path d="M6.24,120a5.91,5.91,0,1,0,5.57,6.24A5.91,5.91,0,0,0,6.24,120Z"/><path d="M73.32,18.43a5.92,5.92,0,1,0-8-2.62,5.91,5.91,0,0,0,8,2.62Z"/><path d="M91.89,50.81a9.14,9.14,0,1,0-12.28-4.05,9.13,9.13,0,0,0,12.28,4.05Z"/><path d="M29.4,73.08a7.53,7.53,0,1,0-2.15-10.43h0A7.53,7.53,0,0,0,29.4,73.08Z"/><path d="M40.53,116.67a9.14,9.14,0,1,0,8.61,9.65A9.13,9.13,0,0,0,40.53,116.67Z"/><path d="M30.4,178.12a7.53,7.53,0,1,0,10.12,3.33,7.52,7.52,0,0,0-10.12-3.33Z"/><path d="M65.93,97.78a10.76,10.76,0,1,0-3.1-14.9,10.76,10.76,0,0,0,3.1,14.9Z"/><path d="M178.65,50.09A9.15,9.15,0,1,0,176,37.42a9.14,9.14,0,0,0,2.66,12.67Z"/><path d="M197.41,17.81a5.92,5.92,0,1,0-1.71-8.2h0A5.92,5.92,0,0,0,197.41,17.81Z"/><path d="M180.09,107.22a18.31,18.31,0,0,0-2.1,36.55h1.06a18.3,18.3,0,0,0,13.64-30.49A18.09,18.09,0,0,0,180.09,107.22Z"/><path d="M97.9,96.51A18.31,18.31,0,1,0,96,88.34,18.24,18.24,0,0,0,97.9,96.51Z"/><path d="M241.4,73.06a7.53,7.53,0,1,0-10.12-3.34A7.54,7.54,0,0,0,241.4,73.06Z"/><path d="M195,78.89a10.76,10.76,0,1,0,14.45,4.77A10.76,10.76,0,0,0,195,78.89Z"/><path d="M135.21,15.05a7.53,7.53,0,1,0-7.09-8h0A7.53,7.53,0,0,0,135.21,15.05Z"/><path d="M135.13,62.44A10.76,10.76,0,1,0,125,51.08,10.77,10.77,0,0,0,135.13,62.44Z"/><path d="M76.83,172.28a10.76,10.76,0,1,0-14.45-4.77h0A10.77,10.77,0,0,0,76.83,172.28Z"/><path d="M142.08,78.14a18.31,18.31,0,1,0,15.33-8.27A18.29,18.29,0,0,0,142.08,78.14Z"/><path d="M173.9,154.67a18.3,18.3,0,1,0-16.34,26.54,18.58,18.58,0,0,0,8.24-2A18.31,18.31,0,0,0,173.9,154.67Z"/><path d="M205.88,153.39a10.76,10.76,0,1,0,3.09,14.9A10.76,10.76,0,0,0,205.88,153.39Z"/><path d="M240.92,125.9a9.14,9.14,0,1,0-9.65,8.61A9.14,9.14,0,0,0,240.92,125.9Z"/><path d="M266.24,119.39a5.92,5.92,0,1,0,5.57,6.25h0A5.93,5.93,0,0,0,266.24,119.39Z"/><path d="M242.4,178.09a7.53,7.53,0,1,0,2.17,10.43,7.52,7.52,0,0,0-2.17-10.43Z"/><path d="M74.4,233.36a5.92,5.92,0,1,0,1.7,8.2,5.92,5.92,0,0,0-1.7-8.2Z"/><path d="M198.48,232.74a5.92,5.92,0,1,0,8,2.62h0a5.9,5.9,0,0,0-7.93-2.63Z"/><path d="M129.72,173a18.29,18.29,0,1,0-15.32,8.27A18.3,18.3,0,0,0,129.72,173Z"/><path d="M93.15,201.09a9.14,9.14,0,1,0,2.64,12.66A9.13,9.13,0,0,0,93.15,201.09Z"/><path d="M135.82,236.12a7.53,7.53,0,1,0,7.09,7.95,7.54,7.54,0,0,0-7.09-7.95Z"/><path d="M135.9,188.74A10.76,10.76,0,1,0,146,200.13v0A10.75,10.75,0,0,0,135.9,188.74Z"/><path d="M179.91,200.36a9.15,9.15,0,1,0,12.3,4v0a9.13,9.13,0,0,0-12.27-4Z"/><path d="M327.63,129.32h56.7v12.53h-42v21.39h37.86v12.54H342.35v32.43H327.63Z"/><path d="M388.24,178c0-21.73,10-31.62,29.78-31.62s29.79,9.89,29.79,31.62-10,31.63-29.79,31.63S388.24,199.7,388.24,178Zm45.31.81V177.2c0-13.11-4.49-19.55-15.53-19.55s-15.52,6.44-15.52,19.55v1.61c0,13.11,4.37,19.55,15.52,19.55s15.53-6.48,15.53-19.59Z"/><path d="M459.76,188.54V147.72h13.8v38.41c0,8.62,4.26,11.5,11.16,11.5,7.59,0,13.57-6.1,13.57-14.72V147.72h13.8v60.49H500.71l-1.15-8.05h-.81a23.41,23.41,0,0,1-19.43,9.43C467.7,209.59,459.76,204,459.76,188.54Z"/><path d="M528.19,147.72h11.38l1.15,8.05h.81A23.36,23.36,0,0,1,561,146.34c11.5,0,19.55,5.63,19.55,21v40.83h-13.8V169.8c0-8.63-4.26-11.5-11.16-11.5C548,158.3,542,164.39,542,173v35.19h-13.8Z"/><path d="M592.36,177.85c0-21.74,9.77-31.51,23.23-31.51,8.28,0,14.49,2.76,18.17,8.39h.69V125.06h13.8v83.15H636.87l-1.15-8.05H635c-4,6.32-10.82,9.43-18.52,9.43C601.67,209.59,592.36,199.93,592.36,177.85Zm42.09.92v-1.38c0-12.31-4.14-19.21-13.8-19.21-10.24,0-14,6-14,19.09v1.5c0,13,3.68,19,14,19C630.43,197.74,634.45,191,634.45,178.77Z"/><path d="M659.86,192.57c0-16.45,15.76-21,38-21v-5.06c0-5.17-1.84-9.2-10.35-9.2-8.85,0-11.15,3.57-11.15,6.79v1.61H663a15.32,15.32,0,0,1-.12-2.53c0-10.47,9.89-16.79,24.61-16.79,16.33,0,24.15,7,24.15,19.09v28.86a3.74,3.74,0,0,0,3.46,4h4.22v9.43a21,21,0,0,1-8.63,1.72c-6,0-10.12-3.1-11.5-8.16h-.8c-4,4.94-9.89,8.28-19.32,8.28C672.17,209.59,659.86,207.29,659.86,192.57Zm38-8.51V181.3c-13.11,0-23.8,1.84-23.8,9.89,0,4.83,3.1,7.36,9.2,7.36,9.15,0,14.55-5.75,14.55-14.49Z"/><path d="M729.09,194.52V159h-7.36V147.72h7.59l2.53-16.91h11v16.91H753.2V159H742.89v34.15c0,3.34,1.61,5.18,5,5.18h5.4v9.43a30.08,30.08,0,0,1-9.66,1.84C732.43,209.59,729.09,202,729.09,194.52Z"/><path d="M764.4,125.06H778v13.57H764.4Zm0,22.66h13.8v60.49H764.4Z"/><path d="M790.39,178c0-21.73,10-31.62,29.78-31.62S850,156.23,850,178s-10,31.63-29.79,31.63S790.39,199.7,790.39,178Zm45.31.81V177.2c0-13.11-4.49-19.55-15.53-19.55s-15.52,6.44-15.52,19.55v1.61c0,13.11,4.37,19.55,15.52,19.55s15.53-6.48,15.53-19.59Z"/><path d="M862.26,147.72h11.39l1.15,8.05h.8A23.37,23.37,0,0,1,895,146.34c11.5,0,19.55,5.63,19.55,21v40.83h-13.8V169.8c0-8.63-4.26-11.5-11.16-11.5-7.59,0-13.57,6.09-13.57,14.72v35.19h-13.8Z"/><path d="M324.52,63.77c0-27.72,14-40.83,38.19-40.83,19.66,0,34.84,9.89,34.84,30.48H382.49c0-11.73-8.05-18.06-19.55-18.06-15.87,0-23.35,9.2-23.35,27.26v2.3c0,18.4,7.36,27.25,23.35,27.25,12.19,0,20.12-6.32,20.12-17.82h14.49c0,20.58-14.95,30.25-34.84,30.25C338.55,104.59,324.52,92.17,324.52,63.77Z"/><path d="M406.06,87.57c0-16.44,15.75-21,37.95-21v-5.1c0-5.18-1.84-9.2-10.35-9.2-8.86,0-11.16,3.56-11.16,6.78v1.61H409.16a16.48,16.48,0,0,1-.11-2.53c0-10.46,9.89-16.79,24.61-16.79,16.33,0,24.15,7,24.15,19.09V89.3a3.74,3.74,0,0,0,3.44,4,5.23,5.23,0,0,0,.56,0h3.68v9.43a21,21,0,0,1-8.62,1.73c-6,0-10.12-3.11-11.5-8.17h-.81c-4,5-9.89,8.28-19.32,8.28C418.36,104.59,406.06,102.29,406.06,87.57ZM444,79.06V76.3c-13.11,0-23.81,1.84-23.81,9.89,0,4.83,3.11,7.36,9.2,7.36C438.6,93.55,444,87.8,444,79.06Z"/><path d="M474.48,42.72h11.39l1.26,9.55H488c2.18-5.75,6-10.93,13.57-10.93a15.9,15.9,0,0,1,5.75,1v13h-4.42c-9.43,0-14.61,5.18-14.61,16.33v31.51h-13.8Z"/><path d="M513.12,72.85c0-21.73,9.78-31.51,23.23-31.51,8.28,0,14.49,2.76,18.17,8.4h.69V20.07H569v83.14H557.63l-1.15-8h-.69c-4,6.33-10.81,9.44-18.52,9.44C522.44,104.59,513.12,94.93,513.12,72.85Zm42.09.92V72.39c0-12.3-4.14-19.2-13.8-19.2-10.23,0-14,6-14,19.09v1.49c0,13,3.68,19,14,19,9.78,0,13.8-6.77,13.8-19Z"/><path d="M580.63,87.57c0-16.44,15.75-21,38-21v-5.1c0-5.18-1.84-9.2-10.35-9.2-8.86,0-11.16,3.56-11.16,6.78v1.61H583.73a16.48,16.48,0,0,1-.11-2.53c0-10.46,9.89-16.79,24.61-16.79,16.33,0,24.15,7,24.15,19.09V89.3a3.74,3.74,0,0,0,3.44,4,5.23,5.23,0,0,0,.56,0h3.68v9.43a21,21,0,0,1-8.62,1.73c-6,0-10.12-3.11-11.5-8.17h-.81c-4,5-9.89,8.28-19.32,8.28C592.93,104.59,580.63,102.29,580.63,87.57Zm38-8.51V76.3c-13.11,0-23.81,1.84-23.81,9.89,0,4.83,3.11,7.36,9.2,7.36,9.15,0,14.56-5.75,14.56-14.49Z"/><path d="M649.05,42.72h11.39l1.15,8.05h.8a23.41,23.41,0,0,1,19.44-9.43c11.5,0,19.55,5.64,19.55,21v40.82h-13.8V64.8c0-8.62-4.26-11.5-11.16-11.5-7.59,0-13.57,6.1-13.57,14.72v35.19h-13.8Z"/><path d="M713.34,73c0-21.74,10-31.63,29.78-31.63S772.91,51.23,772.91,73s-10,31.62-29.79,31.62S713.34,94.7,713.34,73Zm45.31.8V72.16c0-13.11-4.49-19.55-15.53-19.55S727.6,59.05,727.6,72.16v1.61c0,13.11,4.37,19.55,15.52,19.55s15.53-6.44,15.53-19.55Z"/></g></g></g></g></svg>